<svg version="1.1" id="Layer_1" xmlns:x="ns_extend;" xmlns:i="ns_ai;" xmlns:graph="ns_graphs;" xmlns="http://www.w3.org/2000/svg" xmlns:xlink="http://www.w3.org/1999/xlink" x="0px" y="0px" viewBox="0 0 72.2 85" style="enable-background:new 0 0 72.2 85;" xml:space="preserve">
 <style type="text/css">
  .st0{fill-rule:evenodd;clip-rule:evenodd;fill:#0062FF;}
 </style>
 <metadata>
  <sfw xmlns="ns_sfw;">
   <slices>
   </slices>
   <sliceSourceBounds bottomLeftOrigin="true" height="85" width="72.2" x="-138.1" y="-32.5">
   </sliceSourceBounds>
  </sfw>
 </metadata>
 <g id="Page-1">
  <g id="Artboard" transform="translate(-74.000000, -126.000000)">
   <g id="Group-3" transform="translate(74.000000, 114.000000)">
    <g id="Group-4" transform="translate(0.000000, 12.000000)">
     <path id="D-Copy" class="st0" d="M0,77.3C0,82,3,85,7.7,85l22.4,0c13.4,0,24.3-4.5,31.7-12.4H0V77.3z M30.1,0L7.7,0
					C3,0,0,3,0,7.7v4.8h61.8C54.3,4.5,43.4,0,30.1,0z M49.6,54.6c0,3.8,2.4,6.2,6.2,6.2h13.4c1.5-3.8,2.5-7.9,3-12.4H55.8
					C52,48.4,49.6,50.9,49.6,54.6z M31,30.4c0,3.8,2.4,6.2,6.2,6.2h35c-0.5-4.5-1.5-8.6-3-12.4h-32C33.4,24.2,31,26.7,31,30.4z
					 M37.2,54.6c0-3.8-2.4-6.2-6.2-6.2H0v12.4h31C34.8,60.8,37.2,58.4,37.2,54.6z M18.6,30.4c0-3.8-2.4-6.2-6.2-6.2H0v12.4h12.4
					C16.2,36.6,18.6,34.2,18.6,30.4z">
     </path>
    </g>
   </g>
  </g>
 </g>
</svg>