<svg xmlns="http://www.w3.org/2000/svg"  viewBox="0 0 50 50" width="50px" height="50px"><path d="M 5 5 L 5 45 L 45 45 L 45 5 L 5 5 z M 39.234375 16.480469 C 40.371375 16.445469 40.97 16.994609 41 18.099609 C 41.022 18.946609 40.378578 19.613719 39.517578 19.636719 C 38.624578 19.660719 37.884906 18.9505 37.878906 18.0625 C 37.873906 17.3135 38.568375 16.501469 39.234375 16.480469 z M 14.5 20.941406 C 15.873125 20.961656 17.234734 21.508781 18.302734 22.613281 C 18.303734 22.611281 18.304641 22.609422 18.306641 22.607422 C 18.334641 22.655422 18.329359 22.639906 18.318359 22.628906 C 18.313359 22.623906 18.307734 22.618281 18.302734 22.613281 C 17.727734 23.248281 17.174469 23.861234 16.605469 24.490234 C 15.717469 23.729234 14.7835 23.413266 13.6875 23.697266 C 13.1025 23.848266 12.673125 24.200109 12.328125 24.662109 C 11.537125 25.721109 11.706156 27.289141 12.660156 28.244141 C 13.482156 29.067141 15.291187 29.244141 16.617188 27.994141 C 16.791187 28.154141 16.972578 28.311469 17.142578 28.480469 C 17.497578 28.836469 17.841172 29.204641 18.201172 29.556641 C 18.343172 29.695641 18.353938 29.828359 18.210938 29.943359 C 17.834937 30.246359 17.475594 30.585359 17.058594 30.818359 C 14.916594 32.012359 12.173125 31.651297 10.453125 29.904297 C 9.350125 28.784297 8.8995781 27.3845 9.0175781 25.8125 C 9.1175781 24.4805 9.6140938 23.326734 10.621094 22.427734 C 11.741594 21.427234 13.126875 20.921156 14.5 20.941406 z M 29.785156 20.976562 C 30.678934 21.021258 31.566391 21.334391 32.306641 21.962891 C 32.347641 21.997891 32.395141 22.023844 32.494141 22.089844 L 32.494141 21.21875 L 35.232422 21.21875 C 35.231422 24.56175 35.230469 27.904531 35.230469 31.269531 L 32.494141 31.269531 L 32.494141 30.414062 C 32.406141 30.463062 32.355453 30.483625 32.314453 30.515625 C 30.793453 31.702625 29.168031 31.814516 27.457031 30.978516 C 25.953031 30.243516 25.137516 28.999719 24.853516 27.386719 C 24.557516 25.702719 24.881156 24.165625 25.910156 22.765625 C 26.786406 21.573125 28.295527 20.90207 29.785156 20.976562 z M 38.068359 21.214844 L 40.835938 21.214844 L 40.835938 31.275391 L 38.068359 31.275391 L 38.068359 21.214844 z M 30.099609 23.564453 C 29.493041 23.561301 28.881531 23.770312 28.410156 24.210938 C 27.541156 25.022938 27.333172 26.562969 27.951172 27.667969 C 28.422172 28.511969 29.152125 28.932781 30.078125 28.925781 C 31.749125 28.912781 32.616156 27.595156 32.660156 26.285156 C 32.587156 25.946156 32.5355 25.600531 32.4375 25.269531 C 32.11 24.165156 31.110557 23.569707 30.099609 23.564453 z M 21.669922 28.007812 C 22.767922 27.978813 23.586656 28.420312 23.597656 29.820312 C 23.606656 30.780313 22.872906 31.497047 21.878906 31.498047 C 20.926906 31.499047 20.195266 30.745328 20.197266 29.736328 C 20.199266 28.817328 20.799922 28.030813 21.669922 28.007812 z"/></svg>